<?xml version="1.0" encoding="UTF-8"?>
<svg width="92px" height="12px" viewBox="0 0 92 12" version="1.1" xmlns="http://www.w3.org/2000/svg" xmlns:xlink="http://www.w3.org/1999/xlink">
    <title>logo</title>
    <g id="Services-Xangle-Ticker-dark" stroke="none" stroke-width="1" fill="none" fill-rule="evenodd">
        <g id="Artboard-dark" fill="#A0A5AF">
            <path d="M27.095216,3.58412708 C27.6886233,3.58412708 28.2082311,3.75017568 28.6434969,4.07775455 L28.6434969,4.07775455 L28.6434969,3.72268918 L30.2467507,3.72268918 L30.2467507,8.76062636 C30.2467507,9.00009782 30.2380906,9.2139654 30.2207703,9.3977108 C30.2042031,9.5761848 30.1801054,9.74260993 30.1488536,9.88907911 C30.052086,10.2930931 29.8611866,10.642887 29.5810502,10.9331897 C29.0561709,11.4851789 28.3275903,11.7656919 27.4156409,11.7656919 C26.6486545,11.7656919 26.0055456,11.5721568 25.5047641,11.190358 C24.9851562,10.7957572 24.6812986,10.2448975 24.6022278,9.55208705 L24.6022278,9.55208705 L24.5826484,9.38001401 L26.182137,9.38001401 L26.2077408,9.50840986 C26.2510415,9.72792536 26.3214521,9.89736271 26.4167136,10.0106975 C26.6430066,10.2802911 26.9830108,10.4173471 27.4269367,10.4173471 C28.2568032,10.4173471 28.6434969,9.9726682 28.6434969,9.01779461 L28.6434969,9.01779461 L28.6434969,8.66988325 C28.178862,9.00687531 27.6536062,9.17857182 27.0790253,9.17857182 C26.2864351,9.17857182 25.6278886,8.91161387 25.1214592,8.38635808 C24.6161593,7.86034925 24.3601207,7.19502525 24.3601207,6.40958901 C24.3601207,5.64787399 24.5977095,4.98970402 25.06498,4.45390547 C25.5763043,3.8766889 26.2597016,3.58412708 27.095216,3.58412708 Z M61.9386891,0.27358484 C63.0938752,0.27358484 64.0653161,0.583090398 64.8251484,1.19268833 C65.5849808,1.80266279 66.0835031,2.63817718 66.3067839,3.67551029 L66.3067839,3.67551029 L66.3316347,3.78922157 L63.8616147,3.78922157 L63.8378935,3.73085982 C63.6771163,3.33701212 63.4267255,3.02336476 63.0942518,2.79857787 C62.761025,2.57454404 62.3596467,2.46083276 61.9006598,2.46083276 C61.3000985,2.46083276 60.8098598,2.683737 60.4419925,3.122768 C60.0707364,3.56707038 59.8820962,4.17290304 59.8820962,4.92219265 C59.8820962,5.67148226 60.0703599,6.27505575 60.4419925,6.71521633 C60.8094833,7.15048206 61.3000985,7.37112714 61.9006598,7.37112714 C62.3603998,7.37112714 62.761778,7.25703932 63.0942518,7.0330055 C63.4267255,6.80897167 63.6771163,6.49984264 63.83827,6.11314895 L63.83827,6.11314895 L63.8619912,6.05554025 L66.3316347,6.05554025 L66.3067839,6.16962807 C66.0835031,7.19867757 65.5849808,8.0319328 64.825525,8.64529601 C64.0656926,9.25941227 63.0942518,9.57080046 61.9386891,9.57080046 C61.0568618,9.57080046 60.270296,9.37274703 59.6015832,8.98228807 C58.9302348,8.59069953 58.4053555,8.03532155 58.040877,7.33159176 C57.6767749,6.62936808 57.4922765,5.81908102 57.4922765,4.92219265 C57.4922765,4.02568081 57.6767749,3.21539375 58.040877,2.51317007 C58.4057321,1.80906375 58.9306113,1.25330925 59.6015832,0.862097233 C60.271049,0.471638275 61.0572383,0.27358484 61.9386891,0.27358484 Z M12.4879092,3.77871646 C13.0692675,3.77871646 13.6069487,3.95982616 14.0892804,4.31752723 L14.0892804,4.31752723 L14.0892804,3.92254994 L15.7565439,3.92254994 L15.7565439,9.41043742 L14.0892804,9.41043742 L14.0892804,9.05235982 C13.6005478,9.38859883 13.0745389,9.55916576 12.5229262,9.55916576 C11.6908006,9.55916576 10.9923422,9.28015893 10.4471304,8.73193497 C9.91057882,8.17618046 9.63910254,7.47621595 9.63910254,6.65049127 C9.63910254,5.8386981 9.91095535,5.15078246 10.4471304,4.60707683 C10.9878238,4.05734677 11.6746099,3.77871646 12.4879092,3.77871646 Z M56.0311241,7.21230786 L56.0311241,9.51477318 L53.7286588,9.51477318 L53.7286588,7.21230786 L56.0311241,7.21230786 Z M70.3191357,0.362370011 L70.3191357,4.11672514 L73.2409886,0.362370011 L76.0800055,0.362370011 L72.3956845,4.83476298 L76.0743576,9.49504314 L73.2150082,9.49504314 L73.1863921,9.45776692 L70.3191357,5.6706539 L70.3191357,9.49504314 L67.9677218,9.49504314 L67.9677218,0.362370011 L70.3191357,0.362370011 Z M88.5438546,0.362332358 C89.2641516,0.362332358 89.8824097,0.489222107 90.3820616,0.738859801 C90.8858553,0.991133188 91.2699133,1.34205676 91.5229397,1.78221735 C91.7744601,2.22049529 91.9017263,2.72767775 91.9017263,3.29020975 C91.9017263,3.95854597 91.7142157,4.53538601 91.3440892,5.00566878 C90.9961778,5.44808853 90.4950198,5.76286547 89.853417,5.94246906 L89.853417,5.94246906 L92,9.49500549 L89.3880291,9.49500549 L87.451925,6.11680127 L87.1070259,6.11680127 L87.1070259,9.49500549 L84.755612,9.49500549 L84.755612,0.362332358 Z M52.1141467,0.362482969 L52.1141467,2.27110058 L49.6851682,2.27110058 L49.6851682,9.4951561 L47.3209524,9.4951561 L47.3209524,2.27110058 L44.9172012,2.27110058 L44.9172012,0.362482969 L52.1141467,0.362482969 Z M83.0843196,0.362332358 L83.0843196,2.27094997 L79.6808881,2.27094997 L79.6808881,3.95515722 L82.70478,3.95515722 L82.70478,5.77566741 L79.6808881,5.77566741 L79.6808881,7.57320942 L83.0843196,7.57320942 L83.0843196,9.49500549 L77.3294742,9.49500549 L77.3294742,0.362332358 L83.0843196,0.362332358 Z M38.4797868,3.3032376 C39.3646263,3.3032376 40.0755101,3.57960875 40.5932354,4.12519701 C41.1038066,4.66174862 41.3621044,5.41254434 41.3621044,6.35386295 L41.3621044,6.35386295 L41.3545738,6.79289394 L37.2538135,6.79289394 C37.3053977,7.14193488 37.4405711,7.4262131 37.6570744,7.64008069 C37.8976754,7.87503382 38.2147115,7.99439302 38.598393,7.99439302 C38.8954731,7.99439302 39.1428516,7.92737113 39.3341276,7.79445694 C39.4964109,7.67886302 39.6835451,7.47327903 39.8910117,7.18372943 L39.8910117,7.18372943 L41.2657134,7.93264251 C41.1241391,8.14312136 40.9757872,8.33025549 40.8229171,8.4895266 C40.622981,8.70000544 40.4038421,8.87584376 40.1722777,9.01289975 C39.9403368,9.14995574 39.6865573,9.25199467 39.4169636,9.31562781 C39.1526414,9.3785079 38.8612091,9.41051273 38.5509505,9.41051273 C37.6551917,9.41051273 36.925105,9.1288702 36.3802698,8.57273917 C35.8376938,8.01623161 35.5624522,7.27183685 35.5624522,6.35951086 C35.5624522,5.45622152 35.8286571,4.71182677 36.3542894,4.14854171 C36.8889584,3.58751582 37.6032309,3.3032376 38.4797868,3.3032376 Z M20.5808018,3.87650064 C21.2867907,3.87650064 21.8478166,4.09074475 22.2491949,4.51320854 C22.5937175,4.87166267 22.7688027,5.4511384 22.7688027,6.23506854 L22.7688027,6.23506854 L22.7688027,9.40994794 L21.1083167,9.40994794 L21.1083167,6.5227355 C21.1083167,5.92104465 21.0002533,5.65483975 20.9095102,5.53773971 C20.7924102,5.37997472 20.5627284,5.30128048 20.2272425,5.30128048 C19.8541038,5.30128048 19.6007008,5.40746122 19.451596,5.62697672 C19.2927014,5.86305942 19.211748,6.29983126 19.211748,6.92449029 L19.211748,6.92449029 L19.211748,9.40994794 L17.5516385,9.40994794 L17.5516385,3.92206046 L19.211748,3.92206046 L19.211748,4.31741427 C19.6263047,4.02522898 20.0856682,3.87650064 20.5808018,3.87650064 Z M2.59465061,6.66133815e-14 L8.90073222,9.38871179 L6.64872159,9.40038414 L4.46260325,6.22023336 L2.27422576,9.40038414 L7.81597009e-14,9.40038414 L3.28595499,4.5085396 L0.309505558,6.66133815e-14 L2.59465061,6.66133815e-14 Z M33.9997503,0.0944330827 L33.9997503,9.39955578 L32.1521302,9.39955578 L32.1521302,0.0944330827 L33.9997503,0.0944330827 Z M12.7330285,5.1760098 C12.3369217,5.1760098 12.0006827,5.3145719 11.7337247,5.58943693 C11.4656372,5.87145599 11.3293342,6.22878053 11.3293342,6.65049127 C11.3293342,7.10458336 11.4622484,7.47659248 11.724688,7.75597584 C11.9859981,8.03272351 12.321484,8.17279172 12.7213562,8.17279172 C13.1513505,8.17279172 13.5034037,8.03761837 13.7665964,7.77066041 C14.0350604,7.4878883 14.1709868,7.12002099 14.1709868,6.67684819 C14.1709868,6.23442844 14.0343074,5.8661846 13.7654668,5.58228291 C13.5026506,5.31268926 13.1551158,5.1760098 12.7330285,5.1760098 Z M27.3312987,4.93284838 C26.9039401,4.93284838 26.5771143,5.07254006 26.3312418,5.36020702 C26.1057019,5.62264665 25.9912376,5.97055801 25.9912376,6.39452791 C25.9912376,6.81134379 26.1057019,7.15548987 26.3312418,7.41679992 C26.5695837,7.69430064 26.9061992,7.83474538 27.3312987,7.83474538 C27.7635522,7.83474538 28.0948964,7.69693634 28.343781,7.41115201 L28.343781,7.41115201 C28.5760984,7.14946543 28.6943281,6.80569588 28.6943281,6.38850347 C28.6943281,5.94495414 28.5648026,5.58800613 28.3106466,5.32744914 C28.0531018,5.06199729 27.73343,4.93284838 27.3312987,4.93284838 Z M56.0311241,0.35837882 L56.0311241,6.34328253 L53.7286588,6.34328253 L53.7286588,0.35837882 L56.0311241,0.35837882 Z M38.5411608,4.60150423 C37.9353281,4.60150423 37.4300283,5.00965998 37.274899,5.62528234 L37.274899,5.62528234 L39.8077991,5.62528234 C39.6519167,5.00965998 39.1469934,4.60150423 38.5411608,4.60150423 Z M88.3544613,2.37223585 L87.1070259,2.37223585 L87.1070259,4.4487847 L88.3544613,4.4487847 C88.7577222,4.4487847 89.0551789,4.36143033 89.2385477,4.18935729 C89.4204105,4.01916688 89.5126597,3.75936295 89.5126597,3.41672298 C89.5126597,3.08575535 89.4204105,2.83461155 89.2310172,2.64898352 C89.04313,2.46523813 88.7479325,2.37223585 88.3544613,2.37223585 L88.3544613,2.37223585 Z M8.70181278,0.000188263722 L6.29504936,3.58435299 L5.10183389,1.88018979 L6.4053719,0.000188263722 L8.70181278,0.000188263722 Z" id="logo"></path>
        </g>
    </g>
</svg>